<?xml version="1.0" encoding="utf-8"?>
<!-- Generator: Adobe Illustrator 18.1.1, SVG Export Plug-In . SVG Version: 6.00 Build 0)  -->
<svg version="1.1" id="Слой_1" xmlns="http://www.w3.org/2000/svg" xmlns:xlink="http://www.w3.org/1999/xlink" x="0px" y="0px"
	 viewBox="0 0 280 103" enable-background="new 0 0 280 103" xml:space="preserve">
<g>
	<path fill="#00abc3" d="M15.6,65.9c2.2-0.4,5.2-0.7,9.4-0.7c4.5,0,7.8,1,9.9,2.9c2,1.7,3.3,4.5,3.3,7.9c0,3.4-1,6.2-2.9,8.1
		c-2.4,2.6-6.3,3.8-10.6,3.8c-1.1,0-2.2-0.1-3-0.2v13.4h-6.1V65.9z M21.7,82.4c0.8,0.2,1.8,0.3,3,0.3c4.6,0,7.4-2.4,7.4-6.5
		c0-4-2.6-6.1-6.8-6.1c-1.7,0-2.9,0.2-3.5,0.3V82.4z"/>
	<path fill="#00abc3" d="M42.5,65.9c2.3-0.4,5.7-0.7,9.3-0.7c4.9,0,8.1,0.8,10.4,2.8c1.8,1.6,2.9,4.1,2.9,7.1c0,4.6-2.9,7.7-6.1,8.9
		v0.2c2.4,0.9,3.8,3.4,4.7,6.9c1,4.4,1.9,8.5,2.6,9.9H60c-0.5-1.1-1.3-4-2.3-8.4c-0.9-4.6-2.5-6.1-6-6.2h-3.1v14.6h-6.1V65.9z
		 M48.6,81.6h3.6c4.1,0,6.7-2.3,6.7-5.8c0-3.9-2.6-5.7-6.6-5.7c-1.9,0-3.2,0.2-3.8,0.3V81.6z"/>
	<path fill="#00abc3" d="M99.7,82.8c0,11.9-6.8,18.7-16.1,18.7c-9.5,0-15.5-7.6-15.5-18.1c0-10.9,6.5-18.6,16-18.6
		C93.9,64.8,99.7,72.7,99.7,82.8 M74.6,83.3c0,7.2,3.4,13,9.3,13c5.9,0,9.3-5.8,9.3-13.2c0-6.7-3.1-13-9.3-13
		C77.8,70,74.6,76,74.6,83.3"/>
	<path fill="#00abc3" d="M132.4,86.4c-0.2-4.6-0.5-10.1-0.4-14.9h-0.2c-1.1,4.3-2.5,9.1-4,13.6l-4.9,15.4h-4.7l-4.5-15.2
		c-1.3-4.5-2.5-9.4-3.4-13.8h-0.1c-0.2,4.6-0.4,10.3-0.6,15.1l-0.8,14.3h-5.7l2.2-35.5h8.1l4.4,14.3c1.2,4.2,2.2,8.4,3.1,12.3h0.1
		c0.9-3.8,2.1-8.2,3.3-12.4l4.6-14.2h8l1.9,35.5h-6L132.4,86.4z"/>
	<path fill="#00abc3" d="M174.1,82.8c0,11.9-6.8,18.7-16.1,18.7c-9.5,0-15.5-7.6-15.5-18.1c0-10.9,6.5-18.6,16-18.6
		C168.3,64.8,174.1,72.7,174.1,82.8 M148.9,83.3c0,7.2,3.4,13,9.3,13c5.9,0,9.3-5.8,9.3-13.2c0-6.7-3.2-13-9.3-13
		C152.2,70,148.9,76,148.9,83.3"/>
	<polygon fill="#00abc3" points="183.3,70.8 173.7,70.8 173.7,65.4 199.2,65.4 199.2,70.8 189.5,70.8 189.5,100.9 183.3,100.9 	"/>
	<rect x="202" y="65.4" fill="#00abc3" width="6.1" height="35.5"/>
	<path fill="#00abc3" d="M244,82.8c0,11.9-6.8,18.7-16.1,18.7c-9.5,0-15.5-7.6-15.5-18.1c0-10.9,6.5-18.6,16-18.6
		C238.2,64.8,244,72.7,244,82.8 M218.8,83.3c0,7.2,3.4,13,9.3,13c5.9,0,9.3-5.8,9.3-13.2c0-6.7-3.2-13-9.3-13
		C222.1,70,218.8,76,218.8,83.3"/>
	<path fill="#00abc3" d="M248.1,100.9V65.4h7l8.7,15.2c2.3,4,4.2,8.1,5.7,11.9h0.1c-0.4-4.7-0.5-9.3-0.5-14.8V65.4h5.7v35.5h-6.3
		l-8.8-15.6c-2.1-3.9-4.4-8.3-6-12.3l-0.1,0.1c0.3,4.6,0.3,9.3,0.3,15.1v12.7H248.1z"/>
	<path fill="#00abc3" d="M32.9,49.6c3.4,2,8.5,3.6,13.8,3.6c6.7,0,10.4-3.1,10.4-7.8c0-4.3-2.9-6.9-10.2-9.5
		c-9.4-3.4-15.4-8.4-15.4-16.6c0-9.3,7.8-16.5,20.2-16.5c6.2,0,10.8,1.4,13.7,2.9l-2.5,8.4c-2-1.1-6-2.7-11.4-2.7
		c-6.6,0-9.5,3.6-9.5,6.9c0,4.4,3.3,6.4,10.9,9.4c9.9,3.7,14.8,8.7,14.8,17c0,9.2-7,17.1-21.7,17.1c-6,0-12.3-1.7-15.4-3.6
		L32.9,49.6z"/>
	<path fill="#00abc3" d="M121.2,37.7c-0.3-7.4-0.8-16.3-0.7-24h-0.3c-1.9,7-4.2,14.7-6.8,21.9l-8.3,24.8h-8.1l-7.6-24.4
		c-2.2-7.3-4.2-15.1-5.8-22.2h-0.2c-0.3,7.5-0.6,16.5-1,24.3l-1.3,23h-9.8l3.8-57.2H89l7.5,23c2,6.7,3.8,13.5,5.3,19.8h0.3
		c1.5-6.2,3.5-13.2,5.7-19.9l7.9-22.9h13.6l3.3,57.2h-10.2L121.2,37.7z"/>
	<path fill="#00abc3" d="M149.8,44.8L144.8,61h-10.8l18.3-57.2h13.3L184.3,61h-11.2l-5.2-16.2H149.8z M166.1,36.9l-4.5-14.1
		c-1.1-3.5-2-7.4-2.9-10.7h-0.2c-0.8,3.3-1.7,7.3-2.7,10.7l-4.4,14.1H166.1z"/>
	<path fill="#00abc3" d="M188,4.6c3.9-0.7,9.8-1.2,15.8-1.2c8.2,0,13.8,1.4,17.6,4.6c3.1,2.6,4.9,6.6,4.9,11.4
		c0,7.4-5,12.4-10.3,14.3V34c4.1,1.5,6.5,5.5,8,11c1.8,7.1,3.3,13.7,4.5,15.9h-10.8c-0.8-1.7-2.2-6.4-3.8-13.5
		c-1.6-7.5-4.3-9.8-10.3-10h-5.3V61H188V4.6z M198.3,29.9h6.2c7,0,11.5-3.7,11.5-9.4c0-6.3-4.4-9.2-11.2-9.2c-3.3,0-5.4,0.3-6.4,0.5
		V29.9z"/>
	<polygon fill="#00abc3" points="243.3,12.6 227,12.6 227,3.8 270.2,3.8 270.2,12.6 253.7,12.6 253.7,61 243.3,61 	"/>
</g>
</svg>
