<?xml version="1.0" encoding="UTF-8"?>
<svg xmlns="http://www.w3.org/2000/svg" xmlns:xlink="http://www.w3.org/1999/xlink" width="16pt" height="16pt" viewBox="0 0 20 20" version="1.1">
<g id="surface1">
<path style=" stroke:none;fill-rule:nonzero;fill:#00abc3;fill-opacity:1;"
      d="M 7.425781 16.292969 L 10.726562 16.292969 L 10.726562 19.839844 L 7.425781 19.839844 Z M 15.042969 1.136719 C 14.179688 0.378906 12.578125 0 10.234375 0 C 7.585938 0 5.804688 0.367188 4.890625 1.101562 C 3.980469 1.835938 3.523438 3.265625 3.523438 5.386719 L 3.507812 6.109375 L 6.777344 6.109375 L 6.761719 5.359375 C 6.761719 4.339844 6.980469 3.660156 7.410156 3.320312 C 7.84375 2.980469 8.707031 2.808594 10.003906 2.808594 C 11.386719 2.808594 12.277344 2.972656 12.675781 3.289062 C 13.074219 3.613281 13.273438 4.332031 13.273438 5.445312 C 13.273438 6.789062 12.742188 7.683594 11.675781 8.125 L 10.394531 8.671875 C 9.046875 9.230469 8.21875 9.769531 7.902344 10.292969 C 7.585938 10.816406 7.425781 11.894531 7.425781 13.527344 L 10.769531 13.527344 L 10.769531 13.066406 C 10.769531 12.0625 11.472656 11.257812 12.886719 10.664062 C 14.335938 10.050781 15.273438 9.417969 15.695312 8.769531 C 16.121094 8.121094 16.332031 6.988281 16.332031 5.363281 C 16.332031 3.304688 15.902344 1.894531 15.042969 1.136719 Z M 15.042969 1.136719 "/>
</g>
</svg>
