<?xml version="1.0" encoding="utf-8"?>
<!-- Generator: Adobe Illustrator 22.1.0, SVG Export Plug-In . SVG Version: 6.00 Build 0)  -->
<svg version="1.1" id="Слой_1" xmlns="http://www.w3.org/2000/svg" xmlns:xlink="http://www.w3.org/1999/xlink" x="0px" y="0px"
	 viewBox="0 0 595.2 595.2" style="enable-background:new 0 0 595.2 595.2;" xml:space="preserve">
<style type="text/css">
	.st0{fill:#00ABC3;}
</style>
<g>
	<path class="st0" d="M434.1,0h-273C72.2,0,0,72.3,0,161.1v273c0,88.8,72.3,161.1,161.1,161.1h273c88.8,0,161.1-72.3,161.1-161.1
		v-273C595.3,72.3,523,0,434.1,0z M297.6,460.4c-89.8,0-162.8-73-162.8-162.8s73-162.8,162.8-162.8s162.8,73,162.8,162.8
		S387.4,460.4,297.6,460.4z M464.3,173.3c-26.5,0-48.1-21.6-48.1-48.1s21.6-48.1,48.1-48.1s48.1,21.6,48.1,48.1
		S490.8,173.3,464.3,173.3z"/>
	<path class="st0" d="M297.6,169.8c-70.5,0-127.9,57.4-127.9,127.9s57.4,127.9,127.9,127.9s127.9-57.4,127.9-127.9
		C425.5,227.1,368.2,169.8,297.6,169.8z"/>
	<path class="st0" d="M464.3,112c-7.3,0-13.2,5.9-13.2,13.2c0,7.3,5.9,13.2,13.2,13.2s13.2-5.9,13.2-13.2
		C477.5,117.9,471.6,112,464.3,112z"/>
</g>
</svg>
