<?xml version="1.0" encoding="utf-8"?>
<!-- Generator: Adobe Illustrator 22.1.0, SVG Export Plug-In . SVG Version: 6.00 Build 0)  -->
<svg version="1.1" id="Слой_1" xmlns="http://www.w3.org/2000/svg" xmlns:xlink="http://www.w3.org/1999/xlink" x="0px" y="0px"
	 viewBox="0 0 488.8 696.8" style="enable-background:new 0 0 488.8 696.8;" xml:space="preserve">
<style type="text/css">
	.st0{fill:#ffffff;}
</style>
<g>
	<path class="st0" d="M74.4,288.1c0.7,1.5,0.1,5-3.7,6.6c-22.6,7.3-50.4,30.2-63,31.2c-2.9,0.2-4.7,0.3-7-2.6
		c-2.2-2.6,1.8-5.3,3.7-6.1c19.2-8.8,46.6-25.3,56.3-29.2C63.4,286.9,72.1,282.8,74.4,288.1z"/>
	<path class="st0" d="M21.8,188.9c12,0.9,35.6,6.4,41,5.7c4.5-0.6,6.2,5.4,6.1,7.6c-0.1,2.4-4.1,2.7-6.1,2.7c-5.9,0-14-3.3-19.4-3.8
		c-12-1.1-21-1-33-1.9c-3.3-0.2-9.1-0.5-8.4-5.1c0.4-2.3,4.4-4.3,7.3-5C11.5,188.7,17.5,188.9,21.8,188.9z"/>
	<path class="st0" d="M93.4,123.4c-2.5-0.3-9.4-2.5-8.6-2.3c13.6,4-22.9-6.5-36.3-11.2c-5.8-2-10.3-5.1-15.6-8.6
		c-1.2-0.8-3.8-3.4-3.2-5.4c0.9-3,3.5-3.1,5.5-2.9c4,0.4,7.9,2.3,11.6,3.9c16.4,7,26.2,9.5,44.1,13.6c0.8,0.2,6.6,1.6,7.5,1.7
		c3.9,0.8,9,2.6,7.7,7.3C105.4,122,102.3,124.5,93.4,123.4z"/>
	<path class="st0" d="M429.5,234.7c15.2,0,34.9,3.8,52.2,6.7c2.3,0.4,7.1,1.5,7.1,5.7c0,2.5-4.1,4.7-7.8,5.3
		c-2.8,0.4-9.3-0.4-17.4-2.5c-16.1-4.2-24-1.2-40.5-3.2c-2.1-0.2-4.3-0.3-6.2-1c-1.5-0.6-2.8-1.2-3.3-4c-0.3-1.7,0.7-4,2.5-5
		C420,234.3,424.5,234.7,429.5,234.7z"/>
	<path class="st0" d="M246.7,68.5c-0.3,1-0.3,11.1-8.5,9.2c-2.4-0.6-3.3-5-3-7.1c1-5.8,4-6.6,5.1-18.1c1.5-14.9,0.8-25.8,1.6-40.7
		c0.1-1.5,0.5-6.4,1.3-8.5c0.6-1.8,2.4-2.8,3.9-3c2.7-0.4,4.5,0.9,4.8,2.5c1,6.2,1,10.8,1.2,19.2C253,22.2,252.3,48.5,246.7,68.5z"
		/>
	<path class="st0" d="M326.3,106.7c-1.5,0-3.3-2.5-3.5-3.8c-0.4-1.8-0.7-4.2,2.1-5.9c18.6-14.4,29.2-34.9,41.4-54.1
		c2-3.1,4.8-5.4,8.2-2.8c1.6,1.2,2.2,5.7,1.1,7.4c-10.9,16.1-22.9,35.2-33.6,47.7C339.2,98.4,330.4,106.7,326.3,106.7z"/>
	<path class="st0" d="M154,85.7c-2.6-0.5-6-6.5-6.8-7.7c-11.4-16-20.6-29.7-27.4-48.3c-0.9-2.4-2.3-6.7,0.4-7.5
		c3.6-1.1,5.9,1.3,7.3,3.5c8.9,13.4,17.5,26.9,25.9,40.6C155.8,70.3,164.2,87.6,154,85.7z"/>
	<path class="st0" d="M391.5,161.5c-1.5-0.1-2.6-2.2-2.8-3.6c-0.3-1.6-0.4-3.9,3.8-5.3c12.6-4.2,23.9-7.2,36-11.2
		c9-3,19-5.3,27.1-10.1c4.4-2.7,10.1-1.8,10.9,2.4c0.5,2.4-3.6,5.8-5.9,6.8c-5.5,2.6-12.1,3.4-17.9,5.3
		c-13.9,4.5-27.2,9.4-41.1,13.9C399,160.6,395.5,161.7,391.5,161.5z"/>
	<path class="st0" d="M395.8,315.2c3.4-0.6,6.6,1.4,8.8,3c12.5,8.6,14.2,5.3,37.4,26.1c1.2,1.1,6.8,6.4,4,10.2
		c-2.2,2.9-4.9,0.8-6.2,0.2c-4.4-2-8.3-4.4-12.1-7.3c-10.3-7.9-18.1-18.5-31.9-22.5c-1.8-0.5-4.3-3.2-3.7-5.8
		C392.3,317.9,394,315.5,395.8,315.2z"/>
	<path class="st0" d="M392.4,218.9c-7.9-30.6-24.3-55.5-50.3-76.4c-21.9-17.5-48.3-27.9-75-34.8c-34.8-9-61.2-10.2-89.7,1.1
		c-53.5,21.6-84,60.8-90.7,113.4c-3.9,28.7,4.3,55.3,15.1,81.5c7.7,18.7,14.5,33.7,32.8,43.2c4.8,2.5,10.4,8.3,11.8,10.2
		c4.4,5.8,6.9,11.7,6.1,20.1c-0.7,6.7-1.3,9.4-2.8,16c-4.8,21.3-3.4,48,0.1,65.8c1.7,8.4,6.7,13.7,10.3,17
		c10.2,9.4,19.6,13.8,33.6,15.8c3.1,0.4,6.7-0.8,7.2,0.5c0.5,1.2,0.8,4.4-0.1,8.7c-1.5,6.7-2.2,13.7-0.7,18.9
		c0.5,1.6,0.4,2.7,0.1,3.5c-1.2,3-5.9,5.1-9.1,7.9c-13.2,11.7-17.3,23.7-18.4,34.5c-0.2,2.4-0.4,5.8-0.4,9.9l0,0.7
		c0,0.7-3.2,50.4-3.1,120.5h8c-0.1-61.8,2.3-107.8,2.9-118.4c0-0.8,0.8-9.3,1.1-11.9c1-9.8,6.2-21.1,16.1-28.4
		c0.9-0.6,2.5-2.3,4-2.2c1.3,0.1,2.6,1.2,4,2c4.6,2.6,8,4.2,12.4,5.6c5,1.6,11.4-0.5,15.3-5.3c3.7-4.6,1.3-9.8-1.3-14
		c-2.8-4.7-8.8-9.2-13.5-8.7c-1.7,0.2-3.5,0.7-4.9,1.6c-1.4,0.8-3.1,3-4.3,2.3c-0.7-0.4-0.1-3.1,0-5c0.1-2.3,0.5-3.8,0.9-7.4
		c0.5-3.7,1.4-8.1,1.2-10.6c-0.1-1.6,0.2-2.6,0.9-3.2c1.2-1.1,3.6-0.8,6.9-1.1c14.5-1.2,28.4-6.3,41.4-13
		c17.6-9,27.5-22.4,28.2-42.6c0.6-16.9-0.3-32.8,1.2-49.7c0.3-3.2,1.8-7,3.9-9.4c15.1-16.4,21.2-18.3,32.6-25
		c36-22.1,58.8-47,66.6-86.7C395.5,250.2,395.9,234.2,392.4,218.9z M217.1,524.1c4.7-0.2,8.5,3,8.5,6.1c0,1.9-1.4,4.5-5.2,4.5
		c-3.7,0-8.7-1.8-9.1-4.9C211,527.5,212.9,524.3,217.1,524.1z M274.6,449.4c-0.9,1.7-0.4,9.3-2.7,9c-15.8-2.1-36.9-6.1-52.7-7.6
		c-17.3-1.7-34.7-2.1-52-2.7c-9.1,1.3-9.2-1.4-9.1-7.5c0.1-5.1,0-8,5.1-7.1c47.6,7.9,70.6,0.4,104.1,8.5
		C276.6,444.2,277.5,443.7,274.6,449.4z M270.7,433c-8.4-0.2-60.1-3.4-74.2-5.9c-9.9-0.7-19.9-0.4-29.9-0.4
		c-8.5,0.1-8.3-1.5-8.5-6.6c-0.3-5.8,0.4-6.9,6.4-6.5c9.6-1.7,46.9,3.1,57.7,3.8c5,0.2,31.7-0.1,49.8,2.1c6.4,0.8,5.4,1.7,5.8,7.9
		C278.2,434.9,275,433.3,270.7,433z M278.5,406.4c-0.3,4.5,0,5.6-4.1,5.3c-35.1-2.6-72.8-5.1-107.9-7.4c-6.3-0.4-5.5-4.5-5.4-8.6
		c0.1-4.4,0.1-7,5-6.3c2.5,0.4,6.7,0.5,9.2,0.7c0,0.2,1.5-0.2,1.5,0.1c46.1,6.2,56.3,1.5,73.6,2.9c11.9,1,18.3,2.4,26,5.3
		C281,400.1,278.8,402.4,278.5,406.4z M340,332.5c-13.2,9.2-24.6,15.9-37.7,25.2c-3.6,2.5-8.4,6.4-11,10c-5.1,7.1-6.2,8.9-17.5,8.6
		c-8.7,0-17.9,1.8-30.5,2.5c-23.1,2.5-49.2-4.4-75.6-7.9c-2.1-0.3-5-3.1-5.4-5.1c-1.9-8.6-7.3-14.3-14.3-18.6
		c-33.1-19.1-43.1-49.3-48-82.8c-4.3-30.3-2-60.5,11.9-88.4c18.7-37.8,50-60.7,91.8-65.2c46.6-2.5,96.5,7.8,131.8,36.8
		c26.1,21.4,50.7,58,50.2,99C383,274.6,373.1,310.1,340,332.5z"/>
	<g>
		<path class="st0" d="M128.5,258.4c-2.2-1.9-5.5-2.9-10-2.9c-4.2,0-7.2,0.3-9.4,0.7v35h6.1v-13.4c0.8,0.2,1.8,0.2,3,0.2
			c4.3,0,8.2-1.2,10.6-3.8c1.9-1.9,2.9-4.7,2.9-8.1C131.8,262.9,130.5,260.1,128.5,258.4z M118.2,273c-1.3,0-2.3,0-3-0.3v-12
			c0.6-0.2,1.8-0.3,3.5-0.3c4.3,0,6.8,2.1,6.8,6.1C125.6,270.7,122.8,273,118.2,273z"/>
		<path class="st0" d="M157.1,281.4c-0.8-3.4-2.3-5.9-4.7-6.9v-0.2c3.1-1.2,6.1-4.3,6.1-8.9c0-3-1-5.5-2.9-7.1
			c-2.3-2-5.5-2.8-10.4-2.8c-3.5,0-7,0.3-9.3,0.7v35h6.1v-14.6h3.1c3.5,0.1,5.1,1.6,6.1,6.2c0.9,4.4,1.8,7.3,2.3,8.4h6.3
			C159.1,289.9,158.2,285.8,157.1,281.4z M145.7,271.9H142v-11.2c0.6-0.1,1.8-0.3,3.8-0.3c4,0,6.6,1.8,6.6,5.7
			C152.4,269.6,149.8,271.9,145.7,271.9z"/>
		<path class="st0" d="M177.5,255.2c-9.5,0-16,7.7-16,18.6c0,10.4,6,18.1,15.5,18.1c9.3,0,16.2-6.8,16.2-18.7
			C193.1,263,187.3,255.2,177.5,255.2z M177.3,286.6c-5.9,0-9.3-5.8-9.3-13c0-7.3,3.2-13.3,9.3-13.3c6.2,0,9.3,6.3,9.3,13
			C186.6,280.8,183.3,286.6,177.3,286.6z"/>
		<path class="st0" d="M230.4,255.7h-8l-4.7,14.2c-1.3,4.2-2.5,8.5-3.3,12.4h-0.2c-0.8-4-1.9-8.2-3.1-12.3l-4.4-14.3h-8.1l-2.3,35.5
			h5.8l0.8-14.3c0.3-4.8,0.5-10.5,0.6-15.1h0.1c0.9,4.4,2.1,9.3,3.4,13.8l4.5,15.2h4.8l4.9-15.4c1.5-4.5,2.9-9.3,4-13.6h0.1
			c0,4.8,0.2,10.3,0.4,14.9l0.7,14.5h6L230.4,255.7z"/>
		<path class="st0" d="M251.7,255.2c-9.5,0-16,7.7-16,18.6c0,10.4,6,18.1,15.5,18.1c9.3,0,16.2-6.8,16.2-18.7
			C267.3,263,261.5,255.2,251.7,255.2z M251.5,286.6c-5.9,0-9.3-5.8-9.3-13c0-7.3,3.3-13.3,9.3-13.3c6.1,0,9.3,6.3,9.3,13
			C260.8,280.8,257.5,286.6,251.5,286.6z"/>
		<path class="st0" d="M267,255.7v5.4h9.6v30.1h6.1v-30.1h9.7v-5.4H267z"/>
		<path class="st0" d="M295.2,255.7v35.5h6.2v-35.5H295.2z"/>
		<path class="st0" d="M321.5,255.2c-9.5,0-16,7.7-16,18.6c0,10.4,6,18.1,15.5,18.1c9.3,0,16.1-6.8,16.1-18.7
			C337.2,263,331.4,255.2,321.5,255.2z M321.4,286.6c-5.9,0-9.3-5.8-9.3-13c0-7.3,3.3-13.3,9.3-13.3c6.2,0,9.3,6.3,9.3,13
			C330.7,280.8,327.3,286.6,321.4,286.6z"/>
		<path class="st0" d="M362.3,255.7v12.4c0,5.4,0.2,10,0.5,14.8h-0.1c-1.5-3.8-3.5-8-5.8-11.9l-8.7-15.2h-7v35.5h5.6v-12.7
			c0-5.8,0-10.5-0.3-15.1l0.2-0.1c1.6,4,3.9,8.4,6,12.3l8.8,15.6h6.4v-35.5H362.3z"/>
	</g>
	<g>
		<path class="st0" d="M146.5,218.1c-7.6-3-10.9-5-10.9-9.4c0-3.3,2.9-6.9,9.5-6.9c5.3,0,9.3,1.6,11.4,2.7l2.5-8.4
			c-3-1.5-7.5-2.9-13.7-2.9c-12.4,0-20.2,7.1-20.2,16.4c0,8.2,6,13.2,15.4,16.6c7.3,2.6,10.2,5.2,10.2,9.5c0,4.7-3.7,7.8-10.4,7.8
			c-5.3,0-10.4-1.7-13.8-3.6l-2.3,8.6c3.1,1.9,9.4,3.6,15.4,3.6c14.8,0,21.7-8,21.7-17.1C161.2,226.8,156.4,221.8,146.5,218.1z"/>
		<path class="st0" d="M222.5,194.2H209l-7.9,22.9c-2.2,6.7-4.2,13.7-5.7,19.9h-0.3c-1.4-6.4-3.2-13.1-5.3-19.8l-7.5-23h-13.7
			l-3.8,57.2h9.8l1.3-23c0.4-7.8,0.8-16.9,1-24.3h0.2c1.5,7.1,3.6,14.9,5.8,22.2l7.6,24.4h8.1l8.3-24.8c2.5-7.2,4.9-14.9,6.8-21.9
			h0.3c-0.1,7.7,0.3,16.6,0.7,24l1.1,23.3h10.2L222.5,194.2z"/>
		<path class="st0" d="M259,194.2h-13.3l-18.3,57.2h10.8l4.9-16.2h18.2l5.2,16.2h11.2L259,194.2z M244.8,227.3l4.4-14.1
			c1-3.4,1.9-7.4,2.7-10.7h0.2c0.9,3.3,1.8,7.2,2.9,10.7l4.5,14.1H244.8z"/>
		<path class="st0" d="M317.2,235.4c-1.4-5.5-3.9-9.5-8-11v-0.3c5.3-2,10.3-7,10.3-14.3c0-4.8-1.8-8.8-4.9-11.5
			c-3.8-3.2-9.4-4.6-17.6-4.6c-6,0-11.9,0.5-15.8,1.2v56.4h10.3v-23.5h5.3c5.9,0.2,8.7,2.5,10.3,10c1.6,7.1,3,11.8,3.8,13.5h10.8
			C320.5,249.1,319,242.5,317.2,235.4z M297.8,220.2h-6.2v-18.1c1-0.3,3.1-0.5,6.4-0.5c6.8,0,11.2,2.9,11.2,9.2
			C309.2,216.5,304.8,220.2,297.8,220.2z"/>
		<path class="st0" d="M320.2,194.2v8.7h16.3v48.4H347v-48.4h16.5v-8.7H320.2z"/>
	</g>
</g>
</svg>
