<?xml version="1.0" encoding="utf-8"?>
<!-- Generator: Adobe Illustrator 22.1.0, SVG Export Plug-In . SVG Version: 6.00 Build 0)  -->
<svg version="1.1" id="Слой_1" xmlns="http://www.w3.org/2000/svg" xmlns:xlink="http://www.w3.org/1999/xlink" x="0px" y="0px"
	 viewBox="0 0 423 161.1" style="enable-background:new 0 0 423 161.1;" xml:space="preserve">
<style type="text/css">
	.st0{fill:#00ABC3;}
</style>
<g>
	<path class="st0" d="M31.6,106.4c-3.5-3.1-8.9-4.7-16.3-4.7c-6.8,0-11.8,0.5-15.4,1.2v57.2h10v-21.9c1.3,0.3,3,0.3,4.9,0.3
		c7.1,0,13.4-2,17.4-6.2c3.1-3.1,4.7-7.7,4.7-13.2C37,113.8,34.9,109.2,31.6,106.4z M14.9,130.3c-2,0-3.7-0.1-4.9-0.4v-19.6
		c1.1-0.3,3-0.5,5.8-0.5c6.9,0,11.2,3.4,11.2,9.9C27,126.5,22.4,130.3,14.9,130.3z"/>
	<path class="st0" d="M78.4,143.9c-1.4-5.6-3.7-9.6-7.7-11.2v-0.3c5.1-2,9.9-7.1,9.9-14.5c0-4.9-1.7-9-4.7-11.6
		c-3.7-3.3-9.1-4.6-17-4.6c-5.8,0-11.4,0.5-15.2,1.2v57.2h10v-23.8h5.1c5.7,0.2,8.3,2.6,9.9,10.2c1.6,7.2,2.9,12,3.7,13.7h10.4
		C81.6,157.9,80.1,151.2,78.4,143.9z M59.7,128.5h-6v-18.3c1-0.2,3-0.5,6.2-0.5c6.5,0,10.8,2.9,10.8,9.3
		C70.7,124.7,66.5,128.5,59.7,128.5z"/>
	<path class="st0" d="M111.6,101.2c-15.5,0-26.1,12.6-26.1,30.4c0,17,9.8,29.5,25.3,29.5c15.2,0,26.4-11.1,26.4-30.6
		C137.2,114,127.7,101.2,111.6,101.2z M111.4,152.6c-9.6,0-15.3-9.4-15.3-21.2c0-12,5.3-21.7,15.3-21.7c10,0,15.2,10.3,15.2,21.3
		C126.6,143.1,121.1,152.6,111.4,152.6z"/>
	<path class="st0" d="M198.1,102.1h-13.1l-7.6,23.2c-2.1,6.8-4,13.9-5.5,20.2h-0.2c-1.4-6.5-3.1-13.3-5.1-20.1l-7.2-23.3h-13.2
		l-3.7,58h9.4l1.2-23.3c0.4-7.9,0.7-17.1,1-24.7h0.2c1.5,7.2,3.4,15.2,5.6,22.6l7.4,24.8h7.8l8-25.1c2.5-7.3,4.7-15.2,6.5-22.2h0.2
		c-0.1,7.8,0.3,16.9,0.7,24.4l1.1,23.7h9.8L198.1,102.1z"/>
	<path class="st0" d="M232.9,101.2c-15.5,0-26.1,12.6-26.1,30.4c0,17,9.8,29.5,25.3,29.5c15.2,0,26.4-11.1,26.4-30.6
		C258.5,114,249,101.2,232.9,101.2z M232.7,152.6c-9.6,0-15.3-9.4-15.3-21.2c0-12,5.3-21.7,15.3-21.7c10,0,15.2,10.3,15.2,21.3
		C247.9,143.1,242.4,152.6,232.7,152.6z"/>
	<path class="st0" d="M257.9,102.1v8.9h15.7v49.1h10V111h15.8v-8.9H257.9z"/>
	<path class="st0" d="M304.1,102.1v58h10v-58H304.1z"/>
	<path class="st0" d="M347,101.2c-15.5,0-26.1,12.6-26.1,30.4c0,17,9.8,29.5,25.3,29.5c15.2,0,26.4-11.1,26.4-30.6
		C372.6,114,363.1,101.2,347,101.2z M346.8,152.6c-9.6,0-15.3-9.4-15.3-21.2c0-12,5.3-21.7,15.3-21.7c10,0,15.2,10.3,15.2,21.3
		C362,143.1,356.5,152.6,346.8,152.6z"/>
	<path class="st0" d="M413.7,102.1v20.2c0,8.9,0.2,16.4,0.9,24.1h-0.2c-2.5-6.3-5.7-13-9.4-19.5l-14.2-24.9h-11.4v58h9.2v-20.7
		c0-9.5-0.1-17.2-0.5-24.7l0.2-0.1c2.7,6.5,6.4,13.7,9.9,20.1l14.4,25.5H423v-58H413.7z"/>
</g>
<g>
	<path class="st0" d="M61,40.6c-12.5-4.9-17.9-8.2-17.9-15.4c0-5.4,4.7-11.2,15.5-11.2c8.7,0,15.2,2.6,18.6,4.4l4.1-13.7
		C76.6,2.2,69.1,0,59,0C38.7,0,26,11.6,26,26.9c0,13.4,9.8,21.6,25.2,27.2c11.9,4.3,16.6,8.5,16.6,15.5c0,7.6-6.1,12.8-17,12.8
		c-8.7,0-17-2.8-22.6-6l-3.7,14.1c5.1,3.1,15.4,5.8,25.2,5.8c24.1,0,35.5-13,35.5-28C85.1,54.9,77.3,46.7,61,40.6z"/>
	<path class="st0" d="M185.3,1.5h-22.2l-12.9,37.4c-3.6,10.9-6.8,22.4-9.3,32.6h-0.4c-2.4-10.4-5.3-21.5-8.6-32.4L119.8,1.5H97.3
		l-6.2,93.4H107l2.1-37.5c0.7-12.7,1.2-27.6,1.7-39.8h0.3c2.5,11.6,5.8,24.4,9.4,36.3L133,93.8h13.2l13.6-40.5
		c4.2-11.8,8-24.4,11.1-35.7h0.4c-0.1,12.6,0.6,27.2,1.1,39.2l1.8,38.1h16.6L185.3,1.5z"/>
	<path class="st0" d="M244.9,1.5h-21.8l-29.9,93.4h17.6l8-26.5h29.7l8.4,26.5h18.3L244.9,1.5z M221.6,55.6l7.2-23
		c1.7-5.5,3-12.1,4.4-17.5h0.3c1.4,5.4,2.9,11.8,4.7,17.5l7.3,23H221.6z"/>
	<path class="st0" d="M339.9,68.9c-2.4-9-6.4-15.5-13-18v-0.4c8.7-3.2,16.9-11.4,16.9-23.4c0-7.9-2.9-14.4-8-18.7
		c-6.2-5.3-15.4-7.5-28.8-7.5c-9.8,0-19.4,0.8-25.8,1.9v92.1h16.9V56.5h8.6c9.7,0.3,14.1,4.2,16.8,16.4c2.6,11.6,4.9,19.3,6.2,22
		h17.6C345.3,91.3,342.8,80.5,339.9,68.9z M308.2,44.1h-10.1V14.5c1.7-0.4,5.1-0.8,10.5-0.8c11.1,0,18.3,4.7,18.3,14.9
		C326.9,38,319.7,44.1,308.2,44.1z"/>
	<path class="st0" d="M344.9,1.5v14.3h26.6v79.1h17.1V15.8h26.9V1.5H344.9z"/>
</g>
</svg>
